<svg xmlns="http://www.w3.org/2000/svg" viewBox="0 0 120 120" width="240" height="240">
<defs><clipPath id="disc"><circle cx="60" cy="60" r="58"/></clipPath></defs>
<circle cx="60" cy="60" r="58" fill="#FFE9A6"/><circle cx="60" cy="60" r="58" fill="none" stroke="#FDB913" stroke-width="2" opacity="0.55"/>
<g clip-path="url(#disc)">
<g><rect x="80" y="79.5" width="41" height="13" rx="6.5" fill="#FFC53D" transform="rotate(-74 80 86)"/><rect x="80" y="79.5" width="36" height="13" rx="6.5" fill="#E3242B" transform="rotate(-74 80 86)"/><rect x="88" y="82" width="20" height="8" rx="4" fill="#B5161E" opacity="0.2" transform="rotate(-74 80 86)"/><rect x="80" y="79.5" width="47" height="13" rx="6.5" fill="#FFC53D" transform="rotate(-56 80 86)"/><rect x="80" y="79.5" width="42" height="13" rx="6.5" fill="#E3242B" transform="rotate(-56 80 86)"/><rect x="88" y="82" width="26" height="8" rx="4" fill="#B5161E" opacity="0.2" transform="rotate(-56 80 86)"/><rect x="80" y="79.5" width="49" height="13" rx="6.5" fill="#FFC53D" transform="rotate(-39 80 86)"/><rect x="80" y="79.5" width="44" height="13" rx="6.5" fill="#E3242B" transform="rotate(-39 80 86)"/><rect x="88" y="82" width="28" height="8" rx="4" fill="#B5161E" opacity="0.2" transform="rotate(-39 80 86)"/><rect x="80" y="79.5" width="45" height="13" rx="6.5" fill="#FFC53D" transform="rotate(-23 80 86)"/><rect x="80" y="79.5" width="40" height="13" rx="6.5" fill="#E3242B" transform="rotate(-23 80 86)"/><rect x="88" y="82" width="24" height="8" rx="4" fill="#B5161E" opacity="0.2" transform="rotate(-23 80 86)"/><rect x="80" y="79.5" width="37" height="13" rx="6.5" fill="#FFC53D" transform="rotate(-8 80 86)"/><rect x="80" y="79.5" width="32" height="13" rx="6.5" fill="#E3242B" transform="rotate(-8 80 86)"/><rect x="88" y="82" width="16" height="8" rx="4" fill="#B5161E" opacity="0.2" transform="rotate(-8 80 86)"/><ellipse cx="85" cy="80" rx="12" ry="9" fill="#E3242B" transform="rotate(-40 85 80)"/></g>
<g><rect x="40" y="79.5" width="41" height="13" rx="6.5" fill="#FFC53D" transform="rotate(254 40 86)"/><rect x="40" y="79.5" width="36" height="13" rx="6.5" fill="#E3242B" transform="rotate(254 40 86)"/><rect x="48" y="82" width="20" height="8" rx="4" fill="#B5161E" opacity="0.2" transform="rotate(254 40 86)"/><rect x="40" y="79.5" width="47" height="13" rx="6.5" fill="#FFC53D" transform="rotate(236 40 86)"/><rect x="40" y="79.5" width="42" height="13" rx="6.5" fill="#E3242B" transform="rotate(236 40 86)"/><rect x="48" y="82" width="26" height="8" rx="4" fill="#B5161E" opacity="0.2" transform="rotate(236 40 86)"/><rect x="40" y="79.5" width="49" height="13" rx="6.5" fill="#FFC53D" transform="rotate(219 40 86)"/><rect x="40" y="79.5" width="44" height="13" rx="6.5" fill="#E3242B" transform="rotate(219 40 86)"/><rect x="48" y="82" width="28" height="8" rx="4" fill="#B5161E" opacity="0.2" transform="rotate(219 40 86)"/><rect x="40" y="79.5" width="45" height="13" rx="6.5" fill="#FFC53D" transform="rotate(203 40 86)"/><rect x="40" y="79.5" width="40" height="13" rx="6.5" fill="#E3242B" transform="rotate(203 40 86)"/><rect x="48" y="82" width="24" height="8" rx="4" fill="#B5161E" opacity="0.2" transform="rotate(203 40 86)"/><rect x="40" y="79.5" width="37" height="13" rx="6.5" fill="#FFC53D" transform="rotate(188 40 86)"/><rect x="40" y="79.5" width="32" height="13" rx="6.5" fill="#E3242B" transform="rotate(188 40 86)"/><rect x="48" y="82" width="16" height="8" rx="4" fill="#B5161E" opacity="0.2" transform="rotate(188 40 86)"/><ellipse cx="35" cy="80" rx="12" ry="9" fill="#E3242B" transform="rotate(40 35 80)"/></g>
<path d="M34 90 C34 80 46 75 60 75 C74 75 86 80 86 90 L86 106 C86 118 74 123 60 123 C46 123 34 118 34 106 Z" fill="#E3242B"/>
<ellipse cx="60" cy="95" rx="24" ry="7" fill="#B5161E" opacity="0.28"/>
</g>
<g><path d="M44 36 C40 22 34 12 28 10 C25 20 26 32 32 42 Z" fill="#E3242B"/><path d="M40 36 C37 26 33 18 29 15 C28 23 29 31 33 39 Z" fill="#FFC53D"/></g>
<g><path d="M76 36 C80 22 86 12 92 10 C95 20 94 32 88 42 Z" fill="#E3242B"/><path d="M80 36 C83 26 87 18 91 15 C92 23 91 31 87 39 Z" fill="#FFC53D"/></g>
<path d="M48 36 C46 24 50 12 58 6 C60 12 64 10 70 3 C75 14 73 26 71 36 Z" fill="#FF8A1F"/>
<path d="M54 34 C53 25 56 16 61 11 C63 14 65 12 68 8 C70.5 18 69.5 27 66.5 34 Z" fill="#FFC53D"/>
<ellipse cx="60" cy="56" rx="32" ry="29" fill="#E3242B"/>
<ellipse cx="46" cy="38" rx="9" ry="4.5" fill="#fff" opacity="0.1" transform="rotate(-28 46 38)"/>
<ellipse cx="60" cy="79" rx="17" ry="12" fill="#F2494F"/>
<circle cx="54" cy="79" r="1.6" fill="#B5161E" opacity="0.75"/>
<circle cx="66" cy="79" r="1.6" fill="#B5161E" opacity="0.75"/>
<ellipse cx="46" cy="58" rx="8.5" ry="9.5" fill="#2A1612"/>
<ellipse cx="46" cy="59" rx="6" ry="7" fill="#5B2A1C"/>
<ellipse cx="46" cy="60" rx="4" ry="5" fill="#14090A"/>
<circle cx="43" cy="54.5" r="3" fill="#fff"/>
<circle cx="48.5" cy="61.5" r="1.3" fill="#fff" opacity="0.85"/>
<ellipse cx="74" cy="58" rx="8.5" ry="9.5" fill="#2A1612"/>
<ellipse cx="74" cy="59" rx="6" ry="7" fill="#5B2A1C"/>
<ellipse cx="74" cy="60" rx="4" ry="5" fill="#14090A"/>
<circle cx="71" cy="54.5" r="3" fill="#fff"/>
<circle cx="76.5" cy="61.5" r="1.3" fill="#fff" opacity="0.85"/>
<path d="M55 86 Q60 90 65 86" fill="none" stroke="#2A1612" stroke-width="2.2" stroke-linecap="round"/>
<circle cx="97" cy="97" r="15" fill="#1F2A37" stroke="#fff" stroke-width="3"/><path d="M97 87.5 C98 94 100 96 106.5 97 C100 98 98 100 97 106.5 C96 100 94 98 87.5 97 C94 96 96 94 97 87.5 Z" fill="#fff"/>
</svg>
